<svg id="Layer_1" data-name="Layer 1" xmlns="http://www.w3.org/2000/svg" viewBox="0 0 120 120"><defs><style>.cls-1{fill:#fff;}.cls-2{fill:#e2e2e2;}.cls-3{fill:#d81616;}.cls-4{fill:#b51616;}.cls-5{fill:#1e0505;}</style></defs><title>Candy cane icon</title><path class="cls-1" d="M80.49,43.15A25.39,25.39,0,0,0,29.77,42a6.65,6.65,0,0,0-.06.77v.91a6.69,6.69,0,1,0,13.38,0,12,12,0,0,1,24,0v58.85a6.69,6.69,0,0,0,13.38,0V43.15Z"></path><path class="cls-2" d="M73.77,26.49v82.69h0a6.7,6.7,0,0,0,6.69-6.69V43.15A25.26,25.26,0,0,0,73.77,26.49Z"></path><polygon class="cls-3" points="80.5 45.66 67.12 49.2 67.12 63.35 80.5 59.81 80.5 45.66"></polygon><polygon class="cls-3" points="80.5 74.48 67.12 78.02 67.12 92.17 80.5 88.63 80.5 74.48"></polygon><polygon class="cls-4" points="73.77 61.59 80.5 59.81 80.5 45.66 73.77 47.44 73.77 61.59"></polygon><polygon class="cls-4" points="73.77 90.41 80.5 88.63 80.5 74.48 73.77 76.26 73.77 90.41"></polygon><path class="cls-3" d="M44.06,20.79a25.58,25.58,0,0,0-10.3,9.13s9.33,13.72,9.36,13.24c.5-3,3.92-9.78,8.9-11.11Z"></path><path class="cls-3" d="M67.18,21.33,57.46,31.87A12,12,0,0,1,67,41.75l10-10.9A25.66,25.66,0,0,0,67.18,21.33Z"></path><path class="cls-5" d="M82.5,61.35V43.06h0a26.93,26.93,0,0,0-3-11.91l0,0-.75-1.28-.28-.44-.33-.52a27,27,0,0,0-2.07-2.8L76,26a27.75,27.75,0,0,0-6.82-5.81L69,20.07c-.28-.16-.56-.34-.84-.49l-1.37-.75,0,0a27.14,27.14,0,0,0-22-.57l0-.05L43.19,19l-.19.1c-.45.23-.9.46-1.33.71l-.19.1c-.45.26-.89.54-1.32.82l-.5.33c-.31.22-.63.44-.93.67l-.56.43c-.33.26-.65.52-1,.8s-.35.31-.52.47-.5.46-.74.7l-.51.5-.91,1c-.14.16-.28.32-.41.49s-.5.61-.74.92c-.09.12-.19.23-.27.35-.32.42-.62.86-.91,1.3,0,.06-.08.11-.11.17L31.38,30a27.21,27.21,0,0,0-3.6,11.77,8,8,0,0,0-.07,1v.91A8.69,8.69,0,0,0,45,44.71l.09-1.32C45.57,41,48.56,35,52.53,34l.22-.06a10.1,10.1,0,0,1,2.36-.29,9.72,9.72,0,0,1,2,.2l.31.07.55.14.4.13.42.16.42.17.34.16a10.14,10.14,0,0,1,1.6,1l.11.08.53.44,0,0A10,10,0,0,1,65,42.06l0,.31a10.69,10.69,0,0,1,.09,1.27v58.85a8.69,8.69,0,1,0,17.38,0V90.17h0V71.88h0V61.35Zm-4-3.08-9.37,2.48v-10l9.37-2.48Zm-15.25-26-.09-.06c-.27-.19-.54-.36-.82-.53L62,31.48l-.76-.4L61,31l6.52-7.06.23.14c.51.33,1,.69,1.49,1.06l.45.35c.48.39.94.8,1.39,1.22l.43.41c.47.47.93.95,1.36,1.46.1.12.19.24.29.35.43.53.84,1.07,1.22,1.63l.08.12-6.65,7.2A14,14,0,0,0,63.24,32.25Zm-8.13-12A23.06,23.06,0,0,1,63.86,22l-7.15,7.75a14.17,14.17,0,0,0-1.6-.1,14.77,14.77,0,0,0-2.22.19l-5.75-8.14A23.21,23.21,0,0,1,55.11,20.25Zm-13,18.23c-1.69-2.41-4-5.73-5.91-8.55a.21.21,0,0,0,0-.06c.46-.62,1-1.22,1.46-1.8.15-.17.31-.32.47-.48.38-.4.76-.79,1.16-1.16.22-.2.46-.39.69-.59s.73-.61,1.11-.9.5-.36.76-.53.79-.54,1.2-.79l.39-.22,5.44,7.7A14.12,14.12,0,0,0,42.09,38.48Zm-5.68,9.85a4.7,4.7,0,0,1-4.7-4.69v-.91a2.83,2.83,0,0,1,.05-.5v-.14a23.16,23.16,0,0,1,2.17-8.35c3.86,5.67,5.89,8.61,7.14,10.09A4.69,4.69,0,0,1,36.41,48.33Zm32.65-5.91,7.47-8.1a23.07,23.07,0,0,1,2,8.87v.93L69.12,46.6v-3C69.12,43.23,69.09,42.82,69.06,42.42ZM78.5,87.09l-9.38,2.48v-10l9.38-2.48Zm0,15.4a4.69,4.69,0,0,1-9.38,0V93.71l9.38-2.48Zm0-29.55-9.37,2.48V64.89l9.37-2.48Z"></path></svg>