<svg id="Layer_1" data-name="Layer 1" xmlns="http://www.w3.org/2000/svg" viewBox="0 0 120 120"><defs><style>.cls-1{fill:#f4b821;}.cls-2{fill:#d39b1e;}.cls-3{fill:#61a341;}.cls-4{fill:#4f8732;}.cls-5{fill:#934527;}.cls-6{fill:#6b2a0d;}.cls-7{fill:#1e0505;}</style></defs><title>Christmas tree v2 icon</title><path class="cls-1" d="M64.92,9.36a.58.58,0,0,1,1.07,0l2.24,3.52A2.89,2.89,0,0,0,69.74,14l3.92,1c.53.13.65.55.25.94L70.76,19a2.12,2.12,0,0,0-.55,1.68L71,25c.1.54-.25.82-.76.62l-3.81-1.47a3.11,3.11,0,0,0-1.86,0l-3.81,1.47c-.52.2-.86-.08-.77-.62l.75-4.35A2.12,2.12,0,0,0,60.14,19L57,15.88c-.39-.39-.28-.81.26-.94l4-1a2.83,2.83,0,0,0,1.5-1.09Z"></path><polygon class="cls-2" points="68.77 13.72 65.45 8.51 65.39 8.6 65.39 23.81 65.45 23.78 71.12 25.97 70.04 19.66 74.63 15.18 68.77 13.72"></polygon><path class="cls-3" d="M95.82,93.64,69.35,27.36a4,4,0,0,0-1.28-1.72V25.5H67.9a4.27,4.27,0,0,0-4.9,0h-.15v.12a4.14,4.14,0,0,0-1.3,1.74L35.08,93.64A4.19,4.19,0,0,0,39,99.39H91.92A4.19,4.19,0,0,0,95.82,93.64Z"></path><path class="cls-4" d="M69.35,27.36a4,4,0,0,0-1.28-1.72V25.5H67.9a4.23,4.23,0,0,0-2.51-.77V99.39H91.92a4.19,4.19,0,0,0,3.9-5.75Z"></path><rect class="cls-5" x="59.45" y="99.39" width="12" height="15.09" rx="2.15"></rect><path class="cls-6" d="M68.84,98.93H65.57V114h3.27A2.15,2.15,0,0,0,71,111.88v-10.8A2.15,2.15,0,0,0,68.84,98.93Z"></path><path class="cls-7" d="M97.68,92.9,71.35,27a1.63,1.63,0,0,0,.4-.24,2.09,2.09,0,0,0,.68-2l-.74-4.33A.76.76,0,0,1,71.8,20L75,17A2,2,0,0,0,74,13.48l-3.92-1a1.51,1.51,0,0,1-.6-.43L67.25,8.55a2.09,2.09,0,0,0-1.79-1h0a2.1,2.1,0,0,0-1.79,1.06l-2.18,3.51a1.45,1.45,0,0,1-.58.42l-4,1a2.08,2.08,0,0,0-1.56,1.44,2,2,0,0,0,.62,2L59.08,20a.75.75,0,0,1,.13.37l-.74,4.34a2.09,2.09,0,0,0,.68,2,1.81,1.81,0,0,0,.41.23L33.22,92.9A6.2,6.2,0,0,0,39,101.39H57.46s0,.1,0,.15v10.8a4.15,4.15,0,0,0,4.15,4.15h7.7a4.15,4.15,0,0,0,4.15-4.15v-10.8a.77.77,0,0,0,0-.15H91.92a6.2,6.2,0,0,0,5.76-8.49ZM59.25,16l2.36-.58A4.22,4.22,0,0,0,64,13.66l1.45-2.33L67,13.68a4.37,4.37,0,0,0,2.41,1.74l2.28.56-2,1.9a3.68,3.68,0,0,0-1,3l.47,2.73-2.28-.88a4.45,4.45,0,0,0-2.94,0l-2.28.88.47-2.72a3.69,3.69,0,0,0-1-3ZM63.41,28.1a2.2,2.2,0,0,1,4.08,0l8.8,22-1.18.63a9.22,9.22,0,0,1-5,1.47,6.7,6.7,0,0,1-4.67-1.34,9.35,9.35,0,0,0-5.52-1.8,11.91,11.91,0,0,0-5.42,1.33ZM52.35,55.78a18,18,0,0,0,3.75-1.51,6.88,6.88,0,0,1,3.81-1.17,5.49,5.49,0,0,1,3.37,1.17,10.44,10.44,0,0,0,6.33,2h.73a13.21,13.21,0,0,0,6.71-2l.73-.39,9.34,23.36a7.82,7.82,0,0,1-4.15-1,9.32,9.32,0,0,0-5.52-1.8,10.82,10.82,0,0,0-5.75,1.67,9.25,9.25,0,0,1-5,1.47A6.7,6.7,0,0,1,62,76.24a9.35,9.35,0,0,0-5.52-1.8,10.67,10.67,0,0,0-5.75,1.68,9.34,9.34,0,0,1-5,1.46,9.79,9.79,0,0,1-2-.2Zm17.1,45.76v10.8a.15.15,0,0,1-.15.15H61.6a.15.15,0,0,1-.15-.15v-10.8a.15.15,0,0,1,.15-.15h7.7A.15.15,0,0,1,69.45,101.54Zm24.29-5.11a2.17,2.17,0,0,1-1.82,1H39a2.19,2.19,0,0,1-2-3l5.27-13.2a14.92,14.92,0,0,0,3,.41H46a13.24,13.24,0,0,0,6.71-2,6.88,6.88,0,0,1,3.81-1.17,5.49,5.49,0,0,1,3.37,1.17,10.44,10.44,0,0,0,6.33,2h.73a13.21,13.21,0,0,0,6.71-2,6.88,6.88,0,0,1,3.81-1.17,5.49,5.49,0,0,1,3.37,1.17,10.44,10.44,0,0,0,6.33,2h.73c.22,0,.63,0,1,0L94,94.38A2.14,2.14,0,0,1,93.74,96.43Z"></path><circle class="cls-1" cx="80.26" cy="89.42" r="3"></circle><circle class="cls-1" cx="56.27" cy="65.35" r="3"></circle><circle class="cls-1" cx="66.45" cy="42.49" r="3"></circle></svg>