<svg id="Layer_1" data-name="Layer 1" xmlns="http://www.w3.org/2000/svg" viewBox="0 0 120 120"><defs><style>.cls-1{fill:#d0e7f4;}.cls-2{fill:#61a341;}.cls-3{fill:#afcbd8;}.cls-4{fill:#4f8732;}.cls-5{fill:#f4b821;}.cls-6{fill:#d39b1e;}.cls-7{fill:#e2e2e2;}.cls-8{fill:#fff;}.cls-9{fill:#d81616;}.cls-10{fill:#b51616;}.cls-11{fill:#1e0505;}</style></defs><title>Christmas gifts icon</title><rect class="cls-1" x="18.31" y="88" width="82.11" height="20.07" rx="4.26"></rect><rect class="cls-2" x="29.75" y="53.63" width="59.22" height="34.38" rx="4.26"></rect><path class="cls-3" d="M96.15,88H60v20.08H96.15a4.27,4.27,0,0,0,4.27-4.27V92.27A4.27,4.27,0,0,0,96.15,88Z"></path><path class="cls-4" d="M84.71,53.63H60V88H84.71A4.26,4.26,0,0,0,89,83.74V57.89A4.26,4.26,0,0,0,84.71,53.63Z"></path><path class="cls-5" d="M38.31,28.19a4.05,4.05,0,0,0-.07.7V49.36a4.27,4.27,0,0,0,4.27,4.27H76.22a4.27,4.27,0,0,0,4.26-4.27V28.89a4.05,4.05,0,0,0-.07-.7Z"></path><rect class="cls-5" x="35.24" y="19.17" width="48.25" height="9.03" rx="2.94"></rect><path class="cls-6" d="M60,28.19V53.63H76.22a4.27,4.27,0,0,0,4.26-4.27V28.89a4.05,4.05,0,0,0-.07-.7Z"></path><path class="cls-6" d="M80.54,19.17H60v9H80.54a2.94,2.94,0,0,0,2.95-2.94V22.11A2.94,2.94,0,0,0,80.54,19.17Z"></path><path class="cls-7" d="M76.89,101.85a3.59,3.59,0,0,0-2.44,6.23h4.88a3.59,3.59,0,0,0-2.44-6.23Z"></path><path class="cls-7" d="M100.42,96.85V92.27A4.27,4.27,0,0,0,96.22,88a5.4,5.4,0,1,0,4.2,8.84Z"></path><path class="cls-8" d="M88.26,66.23v-.18l-.69,0a4.44,4.44,0,0,1-3.1-.89A6.15,6.15,0,0,0,80.8,64,7.16,7.16,0,0,0,77,65.1a6.26,6.26,0,0,1-3.32,1,4.57,4.57,0,0,1-3.11-.89A6.12,6.12,0,0,0,66.89,64a7.16,7.16,0,0,0-3.82,1.11,6.26,6.26,0,0,1-3.33,1,4.5,4.5,0,0,1-3.1-.89A6.12,6.12,0,0,0,53,64a7.1,7.1,0,0,0-3.82,1.11,6.26,6.26,0,0,1-3.33,1,4.49,4.49,0,0,1-3.1-.89A6.18,6.18,0,0,0,39.06,64a7.13,7.13,0,0,0-3.82,1.11,6.24,6.24,0,0,1-3.3,1l-.65,0v.17a1.31,1.31,0,0,0-.65,1.14,1.34,1.34,0,0,0,.69,1.16v.18l.62,0h.15a8.91,8.91,0,0,0,4.43-1.3,4.52,4.52,0,0,1,2.53-.78,3.59,3.59,0,0,1,2.24.78,7,7,0,0,0,4.2,1.31H46a8.94,8.94,0,0,0,4.46-1.3A4.47,4.47,0,0,1,53,66.65a3.58,3.58,0,0,1,2.23.78,7,7,0,0,0,4.21,1.31h.48a8.87,8.87,0,0,0,4.46-1.3,4.49,4.49,0,0,1,2.53-.78,3.56,3.56,0,0,1,2.23.78,7,7,0,0,0,4.21,1.31h.49a8.86,8.86,0,0,0,4.45-1.3,4.52,4.52,0,0,1,2.53-.78,3.59,3.59,0,0,1,2.24.78,7,7,0,0,0,4.65,1.3l.63,0v-.16a1.32,1.32,0,0,0-.06-2.31Z"></path><path class="cls-8" d="M88.26,77v-.18l-.69,0a4.44,4.44,0,0,1-3.1-.89,6.15,6.15,0,0,0-3.67-1.2A7.16,7.16,0,0,0,77,75.86a6.26,6.26,0,0,1-3.32,1A4.57,4.57,0,0,1,70.55,76a6.12,6.12,0,0,0-3.66-1.2,7.16,7.16,0,0,0-3.82,1.11,6.26,6.26,0,0,1-3.33,1,4.5,4.5,0,0,1-3.1-.89A6.12,6.12,0,0,0,53,74.75a7.1,7.1,0,0,0-3.82,1.11,6.26,6.26,0,0,1-3.33,1,4.49,4.49,0,0,1-3.1-.89,6.18,6.18,0,0,0-3.67-1.2,7.13,7.13,0,0,0-3.82,1.11,6.24,6.24,0,0,1-3.3,1l-.65,0V77a1.31,1.31,0,0,0-.65,1.14,1.34,1.34,0,0,0,.69,1.16v.18l.62,0h.15a8.91,8.91,0,0,0,4.43-1.3,4.52,4.52,0,0,1,2.53-.78,3.59,3.59,0,0,1,2.24.78,7,7,0,0,0,4.2,1.31H46a8.94,8.94,0,0,0,4.46-1.3A4.47,4.47,0,0,1,53,77.41a3.58,3.58,0,0,1,2.23.78,7,7,0,0,0,4.21,1.31h.48a8.87,8.87,0,0,0,4.46-1.3,4.49,4.49,0,0,1,2.53-.78,3.56,3.56,0,0,1,2.23.78,7,7,0,0,0,4.21,1.31h.49a8.86,8.86,0,0,0,4.45-1.3,4.52,4.52,0,0,1,2.53-.78,3.59,3.59,0,0,1,2.24.78,7,7,0,0,0,4.65,1.3l.63,0V79.3A1.32,1.32,0,0,0,88.26,77Z"></path><path class="cls-8" d="M22.56,88a5,5,0,0,0-.27,1.55,4.85,4.85,0,1,0,9.7,0A4.73,4.73,0,0,0,31.71,88H22.56Z"></path><circle class="cls-8" cx="45.45" cy="97.34" r="2.5"></circle><circle class="cls-7" cx="86.09" cy="100.7" r="1.9"></circle><circle class="cls-7" cx="69.01" cy="95.03" r="3.68"></circle><circle class="cls-8" cx="31.99" cy="100.7" r="2.85"></circle><path class="cls-7" d="M88.26,77v-.18l-.69,0a4.44,4.44,0,0,1-3.1-.89,6.15,6.15,0,0,0-3.67-1.2A7.16,7.16,0,0,0,77,75.86a6.26,6.26,0,0,1-3.32,1A4.57,4.57,0,0,1,70.55,76a6.12,6.12,0,0,0-3.66-1.2,7.16,7.16,0,0,0-3.82,1.11,6.22,6.22,0,0,1-3.07,1v2.66a8.86,8.86,0,0,0,4.36-1.29,4.49,4.49,0,0,1,2.53-.78,3.56,3.56,0,0,1,2.23.78,7,7,0,0,0,4.21,1.31h.49a8.86,8.86,0,0,0,4.45-1.3,4.52,4.52,0,0,1,2.53-.78,3.59,3.59,0,0,1,2.24.78,7,7,0,0,0,4.65,1.3l.63,0V79.3A1.32,1.32,0,0,0,88.26,77Z"></path><path class="cls-7" d="M88.26,66.23v-.18l-.69,0a4.44,4.44,0,0,1-3.1-.89A6.15,6.15,0,0,0,80.8,64,7.16,7.16,0,0,0,77,65.1a6.26,6.26,0,0,1-3.32,1,4.57,4.57,0,0,1-3.11-.89A6.12,6.12,0,0,0,66.89,64a7.16,7.16,0,0,0-3.82,1.11,6.22,6.22,0,0,1-3.07,1v2.66a8.86,8.86,0,0,0,4.36-1.29,4.49,4.49,0,0,1,2.53-.78,3.56,3.56,0,0,1,2.23.78,7,7,0,0,0,4.21,1.31h.49a8.86,8.86,0,0,0,4.45-1.3,4.52,4.52,0,0,1,2.53-.78,3.59,3.59,0,0,1,2.24.78,7,7,0,0,0,4.65,1.3l.63,0v-.16a1.32,1.32,0,0,0-.06-2.31Z"></path><rect class="cls-9" x="53.4" y="19.17" width="11.93" height="88.91"></rect><rect class="cls-10" x="60" y="19.17" width="5.33" height="88.91"></rect><path class="cls-11" d="M96.15,86H90.54A6.27,6.27,0,0,0,91,83.74V57.89a6.27,6.27,0,0,0-6.26-6.26H82.05a6.15,6.15,0,0,0,.43-2.27V29.79a4.93,4.93,0,0,0,3-4.54V22.11a5,5,0,0,0-4.95-4.94H74.06a11.32,11.32,0,0,0-.44-3.31l0-.11a5.4,5.4,0,0,0-3.85-3.57c-4.38-1-9.77,3.89-10.34,4.42l0,0c-.6-.56-6-5.42-10.37-4.44a5.4,5.4,0,0,0-3.85,3.57l0,.11a11.51,11.51,0,0,0-.43,3.31H38.18a4.94,4.94,0,0,0-4.94,4.94v3.14a4.94,4.94,0,0,0,3,4.54V49.36a6.36,6.36,0,0,0,.43,2.27H34a6.27,6.27,0,0,0-6.27,6.26V83.74A6.27,6.27,0,0,0,28.18,86H22.57a6.27,6.27,0,0,0-6.26,6.27v11.54a6.27,6.27,0,0,0,6.26,6.27H96.15a6.27,6.27,0,0,0,6.27-6.27V92.27A6.27,6.27,0,0,0,96.15,86ZM69.08,13.11c.47.1,1.15.4,1.69,1.7a7.93,7.93,0,0,1,.29,2.36H61.15a2,2,0,0,1,.25-.35C62.62,15.69,66.65,12.57,69.08,13.11ZM48,14.81c.54-1.3,1.23-1.6,1.7-1.7,2.14-.48,5.85,2,7.68,3.72a2.48,2.48,0,0,1,.24.34H47.66A8.71,8.71,0,0,1,48,14.81Zm-10.71,7.3a.94.94,0,0,1,.94-.94H80.54a1,1,0,0,1,.95.94v3.14a1,1,0,0,1-.95.94H38.18a.94.94,0,0,1-.94-.94Zm41.24,8.08V49.36a2.27,2.27,0,0,1-2.26,2.27H42.51a2.27,2.27,0,0,1-2.27-2.27V30.19ZM31.75,57.89A2.27,2.27,0,0,1,34,55.63H84.71A2.26,2.26,0,0,1,87,57.89V83.74A2.26,2.26,0,0,1,84.71,86H34a2.27,2.27,0,0,1-2.27-2.26Zm66.67,45.92a2.27,2.27,0,0,1-2.27,2.27H22.57a2.27,2.27,0,0,1-2.26-2.27V92.27A2.27,2.27,0,0,1,22.57,90H96.15a2.27,2.27,0,0,1,2.27,2.27Z"></path><path class="cls-11" d="M67.33,110.08H51.4V17.17H67.33Zm-11.93-4h7.93V21.17H55.4Z"></path></svg>