<svg id="Layer_1" data-name="Layer 1" xmlns="http://www.w3.org/2000/svg" viewBox="0 0 120 120"><defs><style>.cls-1{fill:#fff;}.cls-2{fill:#e2e2e2;}.cls-3{fill:#b51616;}.cls-4{fill:#d81616;}.cls-5{fill:#1e0505;}</style></defs><title>Santa hat icon</title><path class="cls-1" d="M28.88,90.12a260,260,0,0,0,63.08,0,7.26,7.26,0,0,1,8.28,5.74h0A7.12,7.12,0,0,1,94,104a276.39,276.39,0,0,1-67.16,0,7.12,7.12,0,0,1-6.23-8.11h0A7.24,7.24,0,0,1,28.88,90.12Z"></path><path class="cls-2" d="M92,90.12A243.57,243.57,0,0,1,49.41,91.8s.19,9.58-8,13.63A290.18,290.18,0,0,0,94,104a7.12,7.12,0,0,0,6.24-8.11A7.26,7.26,0,0,0,92,90.12Z"></path><path class="cls-3" d="M92,90.12a8.13,8.13,0,0,1,1.47-.07,3.24,3.24,0,0,0-.13-.41L73.89,47.41C71.34,61.28,64.78,82.11,48,91.74A260.48,260.48,0,0,0,92,90.12Z"></path><path class="cls-1" d="M71.24,22.07a4,4,0,0,0-2.42-3.48,4,4,0,0,0-.75-4.17,4,4,0,0,0-4.17-.74,3.71,3.71,0,0,0-7,0,4,4,0,0,0-4.17.74A4,4,0,0,0,52,18.59a4,4,0,0,0-2.42,3.48A4,4,0,0,0,52,25.55a3.71,3.71,0,0,0,4.92,4.92,3.71,3.71,0,0,0,7,0,4,4,0,0,0,4.17-.74,4,4,0,0,0,.75-4.18A4,4,0,0,0,71.24,22.07Z"></path><path class="cls-4" d="M93.3,89.64l-27.1-59a4.82,4.82,0,0,1-2.3-.21,3.71,3.71,0,0,1-7,0,4.81,4.81,0,0,1-2.3.21l-27.1,59a2.12,2.12,0,0,0-.12.41,8,8,0,0,1,1.46.07,260,260,0,0,0,63.08,0,8.13,8.13,0,0,1,1.47-.07A3.24,3.24,0,0,0,93.3,89.64Z"></path><path class="cls-5" d="M102.3,95.47a9.22,9.22,0,0,0-7.46-7.26l-26-56.54a4.62,4.62,0,0,0,.64-.53,5.7,5.7,0,0,0,1.56-4.66,5.53,5.53,0,0,0,0-8.81A5.69,5.69,0,0,0,69.49,13a5.75,5.75,0,0,0-4.67-1.57,5.52,5.52,0,0,0-8.8,0,5.53,5.53,0,0,0-6.23,6.23,5.53,5.53,0,0,0,0,8.81,5.68,5.68,0,0,0,1.57,4.66,4.54,4.54,0,0,0,.63.53L26,88.21a9.23,9.23,0,0,0-7.46,7.26c-.93,4.88,2.65,9.69,8,10.48a279.13,279.13,0,0,0,67.74,0C99.65,105.16,103.23,100.35,102.3,95.47ZM51.6,22.07a2.08,2.08,0,0,1,1.31-1.68l1.57-.78L53.92,18a2.1,2.1,0,0,1,.26-2.12,2.1,2.1,0,0,1,2.12-.26l1.66.56.78-1.57a2.09,2.09,0,0,1,1.68-1.31,2.11,2.11,0,0,1,1.69,1.31l.77,1.57,1.66-.56a2.1,2.1,0,0,1,2.12.26A2.1,2.1,0,0,1,66.92,18l-.56,1.66,1.57.78a2.08,2.08,0,0,1,1.31,1.68,2.08,2.08,0,0,1-1.31,1.69l-1.57.77.56,1.66a2.1,2.1,0,0,1-.26,2.12,2.06,2.06,0,0,1-2.12.27L62.88,28l-.77,1.57a2.1,2.1,0,0,1-1.69,1.31,2.08,2.08,0,0,1-1.68-1.3L58,28l-1.66.57a2.05,2.05,0,0,1-2.12-.27,2.1,2.1,0,0,1-.26-2.12l.56-1.66-1.57-.77A2.08,2.08,0,0,1,51.6,22.07Zm4.31,10.64H56a5.53,5.53,0,0,0,8.8,0h.11L90.47,88.28a257.6,257.6,0,0,1-60.1,0ZM93.71,102a274.14,274.14,0,0,1-66.58,0,5.11,5.11,0,0,1-4.46-5.77,5.18,5.18,0,0,1,5.92-4.12,262.76,262.76,0,0,0,63.66,0,5.18,5.18,0,0,1,5.92,4.12A5.11,5.11,0,0,1,93.71,102Z"></path></svg>