<svg id="Layer_1" data-name="Layer 1" xmlns="http://www.w3.org/2000/svg" viewBox="0 0 120 120"><defs><style>.cls-1{fill:#f4b821;}.cls-2{fill:#d39b1e;}.cls-3{fill:#d0e7f4;}.cls-4{fill:#afcbd8;}.cls-5{fill:#fff;}.cls-6{fill:#e2e2e2;}.cls-7{fill:#6b2a0d;}.cls-8{fill:#61a341;}.cls-9{fill:#1e0505;}</style></defs><title>Christmas tree snow globe icon</title><path class="cls-1" d="M94.36,101.6h0a10.05,10.05,0,0,0-10-10H38.21a10.05,10.05,0,0,0-10,10h0a.82.82,0,0,0,.82.81H93.55A.81.81,0,0,0,94.36,101.6Z"></path><path class="cls-2" d="M93.55,102.41a.81.81,0,0,0,.81-.81,10.05,10.05,0,0,0-10-10H69.51l-2.36,2L55,102.41Z"></path><path class="cls-3" d="M42,91.57H80.53a41.26,41.26,0,1,0-38.52,0Z"></path><path class="cls-4" d="M90.26,55.08A41.06,41.06,0,0,1,86.05,73.2c.65.2,1.55.49,2.6.84l.7.24c1.91.65,4.21,1.5,6.41,2.44l.56.14a41.26,41.26,0,0,0-35-63,41.57,41.57,0,0,0-6.14.46A41.26,41.26,0,0,1,90.26,55.08Z"></path><path class="cls-5" d="M42,91.57H80.5A41.37,41.37,0,0,0,96.32,76.86a18.44,18.44,0,0,1-3.74-1.24c-9.6-4.52-16-3.35-26-.36-12.11,3.64-17.51,1.33-30.54-.9a42.61,42.61,0,0,0-11.58-.62A41.49,41.49,0,0,0,42,91.57Z"></path><path class="cls-6" d="M93.12,81.3h0c.5-.61,1-1.23,1.44-1.87l.24-.31c.44-.61.85-1.23,1.25-1.86.08-.14.17-.26.26-.39a18.44,18.44,0,0,1-3.74-1.24A33.09,33.09,0,0,0,86,73.28,41.4,41.4,0,0,1,68.26,91.57H80.5A41.46,41.46,0,0,0,93.12,81.3Z"></path><path class="cls-1" d="M44.56,41.53h-2L44,40.12a.63.63,0,0,0-.89-.9l-1.42,1.42v-2A.63.63,0,0,0,41,38a.63.63,0,0,0-.63.63v2L39,39.22a.64.64,0,0,0-.89,0,.65.65,0,0,0,0,.9l1.42,1.41h-2a.64.64,0,0,0-.63.64h0a.64.64,0,0,0,.63.63h2l-1.42,1.42a.63.63,0,1,0,.89.89l1.42-1.42v2a.63.63,0,0,0,.63.63.63.63,0,0,0,.63-.63v-2l1.42,1.42a.64.64,0,0,0,.89,0,.62.62,0,0,0,0-.89L42.56,42.8h2a.64.64,0,0,0,0-1.27Z"></path><path class="cls-1" d="M79.59,31H77.86l1.22-1.22a.54.54,0,0,0-.77-.77l-1.22,1.22V28.52a.54.54,0,1,0-1.08,0v1.72L74.79,29a.54.54,0,0,0-.77.77L75.24,31H73.52a.55.55,0,0,0-.55.54h0a.55.55,0,0,0,.55.54h1.72L74,33.32a.54.54,0,0,0,0,.76.55.55,0,0,0,.77,0L76,32.86v1.73a.54.54,0,1,0,1.08,0V32.86l1.22,1.22a.55.55,0,0,0,.77,0,.54.54,0,0,0,0-.76l-1.22-1.23h1.73a.54.54,0,1,0,0-1.08Z"></path><path class="cls-7" d="M57.59,68.64a2.4,2.4,0,0,0,0,.28v5.7a2.15,2.15,0,0,0,2.15,2.15h1.7a2.15,2.15,0,0,0,2.15-2.15v-5.7a2.46,2.46,0,0,0,0-.28Z"></path><path class="cls-8" d="M58.7,35.74,47.62,66a2,2,0,0,0,1.86,2.67H71.64A2,2,0,0,0,73.51,66L62.43,35.74A2,2,0,0,0,58.7,35.74Z"></path><path class="cls-9" d="M61.27,11.82A43.26,43.26,0,0,0,26.11,80.28l.22.3c.54.73,1.1,1.45,1.68,2.15.18.22.37.43.55.64.49.57,1,1.13,1.52,1.67l.73.74c.5.5,1,1,1.54,1.45l.82.73c.54.46,1.1.9,1.67,1.34.24.19.48.39.73.57a12.05,12.05,0,0,0-9.39,11.73A2.82,2.82,0,0,0,29,104.41H93.55a2.81,2.81,0,0,0,2.81-2.81A12,12,0,0,0,87,89.87,43.13,43.13,0,0,0,97.93,78l.09-.12v0A43.25,43.25,0,0,0,61.27,11.82Zm31,88.59h-62a8.05,8.05,0,0,1,7.94-6.84H84.34A8.05,8.05,0,0,1,92.28,100.41Zm.66-22.14a39.58,39.58,0,0,1-7.32,7.59l-.17.13c-.53.42-1.08.82-1.64,1.21l-.17.12A38.69,38.69,0,0,1,80,89.57H42.52c-.63-.34-1.24-.71-1.85-1.08-.13-.08-.27-.15-.39-.24-.47-.29-.92-.61-1.38-.93-.26-.18-.53-.35-.79-.54-.42-.31-.82-.63-1.22-1s-.56-.43-.83-.66-.79-.69-1.17-1l-.76-.68c-.41-.39-.8-.8-1.19-1.21-.2-.21-.4-.4-.59-.61-.44-.48-.86-1-1.27-1.47l-.38-.45c-.47-.58-.92-1.18-1.35-1.78l-.17-.24c-.48-.67-.93-1.37-1.37-2.07l0,0a46.78,46.78,0,0,1,7.92.75c2.28.39,4.32.78,6.21,1.14,8.91,1.71,14.79,2.84,25.25-.29,10-3,15.64-4,24.55.25.45.21.91.4,1.41.58ZM54.49,51.58A20,20,0,0,0,65,47.22L67.15,53A20.54,20.54,0,0,1,51.29,60.3Zm1.17-3.19,4.45-12.13a.45.45,0,0,1,.45-.32.46.46,0,0,1,.46.32l2.92,8a16.25,16.25,0,0,1-8.28,4.17ZM49,66.49l1.17-3.2c.42,0,.84,0,1.26,0a23.54,23.54,0,0,0,16.86-7.16L72.1,66.49a.44.44,0,0,1-.06.44.47.47,0,0,1-.4.21H49.48a.48.48,0,0,1-.4-.21A.47.47,0,0,1,49,66.49Zm10,3.65h3v4.23q-1.53.33-2.94.51a.55.55,0,0,1-.06-.26Zm36.31,4.4a14.37,14.37,0,0,1-1.94-.73C83,68.87,75.77,70.42,66,73.34l-1,.28V70.14h6.58a3.49,3.49,0,0,0,3.28-4.69L63.84,35.23a3.49,3.49,0,0,0-6.55,0L46.21,65.45a3.48,3.48,0,0,0,3.27,4.69h6.58v4.48a3,3,0,0,0,.06.52c-4.27.16-8.16-.58-13.44-1.6-1.91-.36-4-.76-6.29-1.16a48.22,48.22,0,0,0-10.69-.72,39.26,39.26,0,1,1,69.67,2.88Z"></path><circle class="cls-5" cx="33.88" cy="59.17" r="2.99"></circle><circle class="cls-5" cx="53.85" cy="27.97" r="2.56"></circle><circle class="cls-5" cx="80.69" cy="46.57" r="2.56"></circle><path class="cls-1" d="M93.74,55.23h-2l1.4-1.41a.63.63,0,1,0-.88-.89l-1.41,1.41v-2a.63.63,0,0,0-1.25,0v2l-1.4-1.41a.63.63,0,1,0-.89.89l1.41,1.41h-2a.62.62,0,0,0-.62.62h0a.62.62,0,0,0,.62.62h2l-1.41,1.41a.63.63,0,1,0,.89.89l1.4-1.41v2a.63.63,0,0,0,1.25,0v-2l1.41,1.41a.63.63,0,1,0,.88-.89l-1.4-1.41h2a.62.62,0,0,0,.62-.62A.62.62,0,0,0,93.74,55.23Z"></path><path class="cls-2" d="M93.74,55.23h-2l1.4-1.41a.63.63,0,1,0-.88-.89l-1.41,1.41v-2a.62.62,0,0,0-.62-.62l-.12,0c.09,1.1.14,2.21.14,3.33A42.63,42.63,0,0,1,90,59.91a.55.55,0,0,0,.26.06.62.62,0,0,0,.62-.62v-2l1.41,1.41a.63.63,0,1,0,.88-.89l-1.4-1.41h2a.62.62,0,0,0,.62-.62A.62.62,0,0,0,93.74,55.23Z"></path></svg>