<svg id="Layer_1" data-name="Layer 1" xmlns="http://www.w3.org/2000/svg" viewBox="0 0 120 120"><defs><style>.cls-1{fill:#f4b821;}.cls-2{fill:#d39b1e;}.cls-3{fill:#934527;}.cls-4{fill:#6b2a0d;}.cls-5{fill:#61a341;}.cls-6{fill:#4f8732;}.cls-7{fill:#1e0505;}</style></defs><title>Christmas tree v1 icon</title><path class="cls-1" d="M59.47,9.46a.58.58,0,0,1,1.07,0L62.78,13a2.89,2.89,0,0,0,1.51,1.09l3.92,1c.53.13.65.55.26.94l-3.16,3.08a2.12,2.12,0,0,0-.55,1.68l.75,4.35c.09.54-.26.82-.77.62l-3.81-1.47a3.11,3.11,0,0,0-1.86,0l-3.81,1.47c-.51.2-.86-.08-.77-.62l.75-4.35a2.12,2.12,0,0,0-.55-1.68L51.53,16c-.39-.39-.27-.81.26-.94l4-1A2.85,2.85,0,0,0,57.3,13Z"></path><polygon class="cls-2" points="63.32 13.82 60 8.61 60 8.61 60 23.88 60 23.88 65.67 26.07 64.59 19.75 69.18 15.28 63.32 13.82"></polygon><rect class="cls-3" x="54.58" y="99.39" width="10.83" height="15.09" rx="2.15"></rect><path class="cls-4" d="M63.27,99.39H60v15.1h3.27a2.15,2.15,0,0,0,2.15-2.15v-10.8A2.15,2.15,0,0,0,63.27,99.39Z"></path><path class="cls-5" d="M94,97.15S76.21,74.37,76.55,74.42c.39-.12,8.65,0,8.65,0a1.39,1.39,0,0,0,1.12-2.23S66.44,46.69,66.7,46.94c.83,0,6.64,0,6.64,0a1.4,1.4,0,0,0,1.13-2.22L61.13,26.65a1.39,1.39,0,0,0-2.26,0L45.53,44.72a1.4,1.4,0,0,0,1.13,2.22s7.16-.22,6.64,0c-.24.89-19.62,25.25-19.62,25.25a1.39,1.39,0,0,0,1.12,2.23s8.42-.15,8.65,0C43.93,74.2,26,97.15,26,97.15a1.4,1.4,0,0,0,1.11,2.24H92.89A1.4,1.4,0,0,0,94,97.15Z"></path><path class="cls-6" d="M76.55,74.42c.39-.12,8.65,0,8.65,0a1.39,1.39,0,0,0,1.12-2.23S66.44,46.69,66.7,46.94c.83,0,6.64,0,6.64,0a1.4,1.4,0,0,0,1.13-2.22L61.13,26.65A1.4,1.4,0,0,0,60,26.07V99.39H92.89A1.4,1.4,0,0,0,94,97.15S76.21,74.37,76.55,74.42Z"></path><path class="cls-7" d="M95.59,95.94l0,0c-4.71-6-11.63-15-15.13-19.55l4.76,0A3.4,3.4,0,0,0,87.9,71C82.32,63.8,74.65,54,70.77,49h2.57a3.4,3.4,0,0,0,2.74-5.41L63.86,27l.34.13A2,2,0,0,0,67,24.83l-.74-4.33a.76.76,0,0,1,.11-.37l3.16-3.08a2,2,0,0,0-.94-3.47l-3.92-1a1.51,1.51,0,0,1-.6-.43L61.8,8.65a2.09,2.09,0,0,0-1.79-1h0A2.1,2.1,0,0,0,58.2,8.67L56,12.18a1.56,1.56,0,0,1-.59.42l-4,1a2,2,0,0,0-.94,3.47l3.15,3.07a.74.74,0,0,1,.12.37L53,24.83a2.09,2.09,0,0,0,.68,2,1.94,1.94,0,0,0,1.25.43,2.33,2.33,0,0,0,.85-.16l.34-.13L43.91,43.54a3.4,3.4,0,0,0,2.81,5.4h0l2.73-.07c-3.81,5-11.9,15.24-17.37,22.12a3.4,3.4,0,0,0,2.75,5.43h0l4.74-.06C36.08,81,29.14,89.88,24.41,95.94a3.4,3.4,0,0,0,2.7,5.45H52.6s0,.1,0,.15v10.8a4.16,4.16,0,0,0,4.15,4.15h6.54a4.15,4.15,0,0,0,4.14-4.15v-10.8c0-.05,0-.1,0-.15H92.89a3.4,3.4,0,0,0,2.7-5.45ZM55.74,18,53.8,16.09l2.36-.58a4.26,4.26,0,0,0,2.41-1.75L60,11.43l1.5,2.35a4.41,4.41,0,0,0,2.41,1.74l2.28.56L64.26,18a3.68,3.68,0,0,0-1,3l.47,2.73-2.28-.88a4.45,4.45,0,0,0-2.94,0l-2.28.88L56.72,21A3.69,3.69,0,0,0,55.74,18Zm7.67,94.36a.15.15,0,0,1-.14.15H56.73a.15.15,0,0,1-.15-.15v-10.8a.15.15,0,0,1,.15-.15h6.54a.15.15,0,0,1,.14.15Zm-.14-15H28.35c1.45-1.86,4.74-6.08,8-10.31,2.19-2.83,4.38-5.67,6-7.82.83-1.08,1.51-2,2-2.62.84-1.15,1.64-2.23.66-3.46a2.59,2.59,0,0,0-1.93-.8c-.68,0-3,0-7,0C49.31,55.74,54.24,49.09,54.61,48.56a3.1,3.1,0,0,0,.68-2.06c-.37-1.72-1.42-1.7-5.34-1.64l-2.07,0L60,28.49,72.15,45H67.54c-1.85,0-2.17.49-2.17.49-1.41,1.24-.44,2.49.58,3.81l2.22,2.87c1.84,2.37,4.29,5.53,6.75,8.68l9,11.6c-4.73-.06-6.75,0-7.33,0a3.06,3.06,0,0,0-1.8,1c-.7,1.21-.71,1.23,2.81,5.86,1.63,2.14,3.82,5,6,7.81,3.28,4.23,6.56,8.44,8,10.3Z"></path></svg>